<?xml version="1.0" encoding="UTF-8"?>
<!-- Generated by jsxcad -->
<!DOCTYPE svg PUBLIC "-//W3C//DTD SVG 1.1 Tiny//EN" "http://www.w3.org/Graphics/SVG/1.1/DTD/svg11-tiny.dtd">
<svg viewBox="-250 -250 500 500" width="500" height="500" xmlns="http://www.w3.org/2000/svg"><path d="M168.17436861118242,32.725694177027755L-115.17772231478881,100.5478220591538L-115.7404514742328,103.93046170876508z" style="fill:rgb(84,220,202)"/><path d="M168.63572828061208,36.098196634957326L-115.7404514742328,103.93046170876508L-116.67406118411765,106.64872329091672z" style="fill:rgb(85,234,182)"/><path d="M168.84805650672857,38.7244309535742L-116.67406118411765,106.64872329091672L-117.94791509657135,108.59275232143492z" style="fill:rgb(89,244,159)"/><path d="M168.800214130199,40.496574994946116L-117.94791509657135,108.59275232143492L-119.51797056281103,109.6787710050955z" style="fill:rgb(93,250,135)"/><path d="M171.51390796516984,56.57006612101198L-118.88898990964493,124.38316812436156L-116.00952613494462,124.00011804698562z" style="fill:rgb(155,4,143)"/><path d="M168.17436861118242,32.725694177027755L-115.7404514742328,103.93046170876508L168.63572828061208,36.098196634957326z" style="fill:rgb(84,220,202)"/><path d="M170.25451644806486,54.869610658215336L-122.0614630479564,123.26770592331883L-118.88898990964493,124.38316812436156z" style="fill:rgb(148,8,167)"/><path d="M168.63572828061208,36.098196634957326L-116.67406118411765,106.64872329091672L168.84805650672857,38.7244309535742z" style="fill:rgb(85,234,182)"/><path d="M168.84805650672857,38.7244309535742L-117.94791509657135,108.59275232143492L168.800214130199,40.496574994946116z" style="fill:rgb(89,244,159)"/><path d="M168.6526021416625,51.60840742847405L-125.40551023729768,120.667801134649L-122.0614630479564,123.26770592331883z" style="fill:rgb(140,16,189)"/><path d="M164.9475180711605,35.0180568502395L-127.47999246541372,104.9068988618284L-128.78756777837154,116.66178003817433z" style="fill:rgb(83,212,212)"/><path d="M168.800214130199,40.496574994946116L-119.51797056281103,109.6787710050955L168.49046011601055,41.33560018179754z" style="fill:rgb(93,250,135)"/><path d="M166.76703820352557,46.888792439934385L-128.78756777837154,116.66178003817433L-125.40551023729768,120.667801134649z" style="fill:rgb(131,29,208)"/><path d="M171.51390796516984,56.57006612101198L-116.00952613494462,124.00011804698562L172.38850533793362,56.6764082492415z" style="fill:rgb(155,4,143)"/><path d="M171.8468942675788,56.610550454448806L172.53523522084734,48.03015180000107L171.7811595835283,42.61628276389033zM171.8468942675788,56.610550454448806L171.7811595835283,42.61628276389033L168.17436861118242,32.725694177027755z" style="fill:rgb(247,158,158)"/><path d="M170.25451644806486,54.869610658215336L-118.88898990964493,124.38316812436156L171.51390796516984,56.57006612101198z" style="fill:rgb(148,8,167)"/><path d="M171.8468942675788,56.610550454448806L172.89971161682124,52.29163864510196L172.53523522084734,48.03015180000107zM171.8468942675788,56.610550454448806L168.17436861118242,32.725694177027755L168.63572828061208,36.098196634957326z" style="fill:rgb(247,158,158)"/><path d="M168.6526021416625,51.60840742847405L-122.0614630479564,123.26770592331883L170.25451644806486,54.869610658215336z" style="fill:rgb(140,16,189)"/><path d="M171.8468942675788,56.610550454448806L172.85322671706925,55.220298875501975L172.89971161682124,52.29163864510196zM171.64088149349263,56.585503546028626L168.63572828061208,36.098196634957326L168.84805650672857,38.7244309535742zM171.2539095793343,56.21900762315674L168.84805650672857,38.7244309535742L168.800214130199,40.496574994946116zM171.8468942675788,56.610550454448806L172.38850533793362,56.6764082492415L172.85322671706925,55.220298875501975zM171.64088149349263,56.585503546028626L171.8468942675788,56.610550454448806L168.63572828061208,36.098196634957326z" style="fill:rgb(247,158,158)"/><path d="M166.76703820352557,46.888792439934385L-125.40551023729768,120.667801134649L168.6526021416625,51.60840742847405z" style="fill:rgb(131,29,208)"/><path d="M164.9475180711605,35.0180568502395L-128.78756777837154,116.66178003817433L166.76703820352557,46.888792439934385z" style="fill:rgb(83,212,212)"/><path d="M171.2539095793343,56.21900762315674L171.64088149349263,56.585503546028626L168.84805650672857,38.7244309535742zM170.68827670921107,55.45528305523786L168.800214130199,40.496574994946116L168.49046011601055,41.33560018179754zM170.68827670921107,55.45528305523786L171.2539095793343,56.21900762315674L168.800214130199,40.496574994946116zM169.9534374150004,54.25668298233791L168.49046011601055,41.33560018179754L167.92697742547838,41.19587030793652zM171.2539095793343,56.21900762315674L171.51390796516984,56.57006612101198L171.64088149349263,56.585503546028626zM169.9534374150004,54.25668298233791L170.68827670921107,55.45528305523786L168.49046011601055,41.33560018179754zM169.03103198104552,52.37882250641022L167.92697742547838,41.19587030793652L167.1281800128672,40.06889543868333zM169.03103198104552,52.37882250641022L169.9534374150004,54.25668298233791L167.92697742547838,41.19587030793652zM169.9534374150004,54.25668298233791L170.25451644806486,54.869610658215336L170.68827670921107,55.45528305523786zM167.9481319553435,49.84511716016889L167.1281800128672,40.06889543868333L166.12244823604703,37.985794235197105zM167.9481319553435,49.84511716016889L169.03103198104552,52.37882250641022L167.1281800128672,40.06889543868333zM166.76703820352557,46.888792439934385L166.12244823604703,37.985794235197105L164.9475180711605,35.0180568502395zM166.76703820352557,46.888792439934385L167.9481319553435,49.84511716016889L166.12244823604703,37.985794235197105zM167.9481319553435,49.84511716016889L168.6526021416625,51.60840742847405L169.03103198104552,52.37882250641022zM170.04379780766706,-69.1513790595851L130.134917224743,-190.25697139131452L147.2210771000382,-78.54271639774812zM170.04379780766706,-69.1513790595851L147.2210771000382,-78.54271639774812L189.91825264925745,44.45041703678265z" style="fill:rgb(247,158,158)"/><path d="M-32.97317745946904,-30.41562844357103L130.134917224743,-190.25697139131452L-29.29245510004468,-143.2379377676541z" style="fill:rgb(83,212,212)"/><path d="M189.91825264925745,44.45041703678265L-32.97317745946904,-30.41562844357103L27.10943706132028,82.76913660517452z" style="fill:rgb(127,37,217)"/><path d="M-32.97317745946904,-30.41562844357103L147.2210771000382,-78.54271639774812L130.134917224743,-190.25697139131452z" style="fill:rgb(83,212,212)"/><path d="M189.91825264925745,44.45041703678265L147.2210771000382,-78.54271639774812L-32.97317745946904,-30.41562844357103z" style="fill:rgb(127,37,217)"/></svg>
